<?xml version="1.0" encoding="UTF-8" standalone="no"?>
<svg width="17px" height="13px" viewBox="0 0 17 13" version="1.1" xmlns="http://www.w3.org/2000/svg" xmlns:xlink="http://www.w3.org/1999/xlink">
    <!-- Generator: Sketch 41.1 (35376) - http://www.bohemiancoding.com/sketch -->
    <title>View</title>
    <desc>Created with Sketch.</desc>
    <defs>
        <polygon id="path-1" points="17 6.5001 17 13 0 13 0 6.5001 0 0.0002 17 0.0002 17 6.5001"></polygon>
    </defs>
    <g id="Page-1" stroke="none" stroke-width="1" fill="none" fill-rule="evenodd">
        <g id="Desktop-1440px---inner-grid" transform="translate(-1276.000000, -510.000000)">
            <g id="Tooltip" transform="translate(1248.000000, 456.000000)">
                <g id="View" transform="translate(28.000000, 54.000000)">
                    <mask id="mask-2" fill="white">
                        <use xlink:href="#path-1"></use>
                    </mask>
                    <g id="Clip-2"></g>
                    <path d="M8.5,8.5722 C7.403,8.5722 6.51,7.6422 6.51,6.5002 C6.51,5.3572 7.403,4.4272 8.5,4.4272 C9.597,4.4272 10.49,5.3572 10.49,6.5002 C10.49,7.6422 9.597,8.5722 8.5,8.5722 L8.5,8.5722 Z M8.5,3.3912 C6.854,3.3912 5.515,4.7852 5.515,6.5002 C5.515,8.2142 6.854,9.6082 8.5,9.6082 C10.146,9.6082 11.485,8.2142 11.485,6.5002 C11.485,4.7852 10.146,3.3912 8.5,3.3912 L8.5,3.3912 Z M8.5,11.9642 C3.932,11.9642 1.567,7.5092 1.089,6.4992 C1.565,5.4882 3.92,1.0362 8.5,1.0362 C13.068,1.0362 15.433,5.4902 15.911,6.5002 C15.435,7.5122 13.08,11.9642 8.5,11.9642 L8.5,11.9642 Z M16.918,6.2982 C16.813,6.0412 14.293,0.0002 8.5,0.0002 C2.707,0.0002 0.187,6.0412 0.082,6.2982 L0,6.5002 L0.082,6.7012 C0.187,6.9582 2.707,13.0002 8.5,13.0002 C14.293,13.0002 16.813,6.9582 16.918,6.7012 L17,6.5002 L16.918,6.2982 Z" id="Fill-1" fill="#1D2D3C" mask="url(#mask-2)"></path>
                </g>
            </g>
        </g>
    </g>
</svg>